<svg width="19" height="18" viewBox="0 0 19 18" fill="none"
  xmlns="http://www.w3.org/2000/svg">
  <path d="M2 0C0.89 0 0 0.9 0 2V16C0 16.5304 0.210714 17.0391 0.585786 17.4142C0.960859 17.7893 1.46957 18 2 18H16C16.5304 18 17.0391 17.7893 17.4142 17.4142C17.7893 17.0391 18 16.5304 18 16V13.72C18.59 13.37 19 12.74 19 12V6C19 5.26 18.59 4.63 18 4.28V2C18 1.46957 17.7893 0.960859 17.4142 0.585786C17.0391 0.210714 16.5304 0 16 0H2ZM2 2H16V4H10C9.46957 4 8.96086 4.21071 8.58579 4.58579C8.21071 4.96086 8 5.46957 8 6V12C8 12.5304 8.21071 13.0391 8.58579 13.4142C8.96086 13.7893 9.46957 14 10 14H16V16H2V2ZM10 6H17V12H10V6ZM13 7.5C12.6022 7.5 12.2206 7.65804 11.9393 7.93934C11.658 8.22064 11.5 8.60218 11.5 9C11.5 9.39782 11.658 9.77936 11.9393 10.0607C12.2206 10.342 12.6022 10.5 13 10.5C13.3978 10.5 13.7794 10.342 14.0607 10.0607C14.342 9.77936 14.5 9.39782 14.5 9C14.5 8.60218 14.342 8.22064 14.0607 7.93934C13.7794 7.65804 13.3978 7.5 13 7.5Z" fill="#80A8B4"/>
</svg>
