<svg width="86" height="25" viewBox="0 0 86 25" xmlns="http://www.w3.org/2000/svg">
<g clip-path="url(#clip0_6364_1147)">
<path fill="white" d="M6.48775 2.75261L10.3227 0.537977C10.4319 0.474971 10.5673 0.474971 10.6766 0.537977L20.7837 6.37332C20.8929 6.43633 20.9601 6.55289 20.9611 6.6789L20.9748 10.6923C20.9748 10.8194 20.9076 10.937 20.7973 11L16.9676 13.2115C16.7324 13.348 16.4373 13.1779 16.4363 12.9059L16.4237 9.30412C16.4237 9.17811 16.3554 9.06155 16.2462 8.99854L6.48775 3.36587C6.25148 3.22935 6.25148 2.88913 6.48775 2.75261Z"/>
<path fill="white" d="M4.01134 20.9316L0.177465 18.718C0.0672057 18.655 0 18.5384 0 18.4114V6.74069C0 6.61468 0.0672057 6.49812 0.176415 6.43406L3.64591 4.41474C3.75617 4.35069 3.89163 4.35069 4.00084 4.41474L7.83051 6.62623C8.06573 6.76274 8.06678 7.10192 7.83156 7.23948L4.7191 9.05088C4.60989 9.11389 4.54269 9.23045 4.54269 9.35751V20.626C4.54269 20.899 4.24761 21.0692 4.01134 20.9326V20.9316Z"/>
<path fill="white" d="M20.9748 13.9832V18.4104C20.9748 18.5375 20.9076 18.654 20.7974 18.717L10.6903 24.5524C10.5811 24.6154 10.4467 24.6154 10.3374 24.5524L6.8543 22.5572C6.74404 22.4942 6.67578 22.3766 6.67578 22.2495V17.8276C6.67578 17.5556 6.96981 17.3855 7.20608 17.5199L10.3311 19.3103C10.4403 19.3733 10.5748 19.3723 10.684 19.3103L20.4424 13.6756C20.6787 13.5391 20.9738 13.7092 20.9738 13.9822L20.9748 13.9832Z"/>
<path fill="white" d="M53.7507 6.57814H49.8359C49.6658 6.57814 49.5293 6.7157 49.5293 6.88581V14.332C49.5293 15.2844 49.3749 16.0814 49.0652 16.722C48.7554 17.3436 48.3301 17.8099 47.7883 18.1207C47.2464 18.4116 46.6269 18.5586 45.9306 18.5586C44.9236 18.5586 44.1402 18.2572 43.5795 17.6555C43.0377 17.0339 42.7667 16.0709 42.7667 14.7699V6.88686C42.7667 6.71675 42.6292 6.57919 42.4601 6.57919H39.6165C39.5934 6.57499 39.5703 6.57289 39.5472 6.57289H33.883V6.25786C33.883 5.4997 34.0573 4.93685 34.4059 4.56722C34.7734 4.17868 35.2869 3.98442 35.9443 3.98442C36.2929 3.98442 36.6216 4.03272 36.9314 4.13038C37.1225 4.19129 37.3105 4.27004 37.4732 4.35615C37.636 4.44226 37.8376 4.36035 37.8996 4.18603L38.8782 1.47786C38.9287 1.33714 38.8719 1.17963 38.7428 1.10507C38.3606 0.883505 37.9122 0.716541 37.3955 0.603131C36.7959 0.46767 36.1669 0.399414 35.5085 0.399414C33.5742 0.399414 32.0842 0.933909 31.0383 2.0029C29.9934 3.05194 29.4705 4.46116 29.4705 6.22951V6.57289H27.4249C27.2244 6.57289 27.0605 6.71045 27.0605 6.88056V9.76201C27.0605 9.93212 27.2233 10.0697 27.4249 10.0697H29.4705V21.9514C29.4705 22.1216 29.6081 22.2591 29.7771 22.2591H33.6908C33.8599 22.2591 33.9974 22.1216 33.9974 21.9514V10.0697H38.2377V15.4388C38.2377 17.0517 38.5181 18.3832 39.0799 19.4323C39.6417 20.4624 40.425 21.23 41.431 21.7351C42.4569 22.2402 43.6183 22.4933 44.9142 22.4933C46.1144 22.4933 47.217 22.2213 48.223 21.6763C48.8215 21.3476 49.334 20.9276 49.7614 20.4194V21.9514C49.7614 22.1216 49.8989 22.2591 50.068 22.2591H53.7507C53.9208 22.2591 54.0573 22.1216 54.0573 21.9514V6.88686C54.0573 6.71675 53.9197 6.57919 53.7507 6.57919V6.57814Z"/>
<path fill="white" d="M66.9318 14.0391C66.3899 13.7083 65.7798 13.4563 65.1025 13.2809C64.4263 13.1066 63.7479 12.9795 63.0706 12.9018C62.4132 12.8042 61.8031 12.6981 61.2414 12.5815C60.6806 12.465 60.2249 12.3096 59.8773 12.1153C59.5476 11.921 59.3837 11.6302 59.3837 11.2406C59.3837 10.8132 59.6158 10.4635 60.081 10.1915C60.5451 9.91957 61.2812 9.78411 62.2872 9.78411C63.0034 9.78411 63.7385 9.87127 64.4935 10.0466C65.1708 10.1821 65.8397 10.4299 66.5023 10.789C66.6588 10.8731 66.852 10.8111 66.9276 10.6504L68.1772 7.97271C68.2454 7.82674 68.1898 7.65033 68.0491 7.57367C67.3581 7.19669 66.5222 6.90372 65.5394 6.69685C64.4368 6.46373 63.3531 6.34717 62.2883 6.34717C60.7793 6.34717 59.4825 6.57084 58.3988 7.01712C57.3151 7.44556 56.4834 8.03781 55.9027 8.79598C55.3419 9.55414 55.0605 10.4278 55.0605 11.4191C55.0605 12.3127 55.2254 13.0415 55.5541 13.6054C55.9027 14.1682 56.3574 14.6156 56.9181 14.9463C57.4799 15.2771 58.0984 15.5291 58.7757 15.7045C59.453 15.8599 60.1209 15.9859 60.7783 16.0836C61.4556 16.1813 62.0751 16.2779 62.6359 16.3745C63.1966 16.4721 63.6419 16.6181 63.9716 16.8124C64.3202 16.9877 64.4945 17.2597 64.4945 17.6283C64.4945 18.0756 64.2719 18.4253 63.8267 18.6773C63.4014 18.9293 62.6653 19.0564 61.6204 19.0564C60.6722 19.0564 59.7051 18.9209 58.718 18.649C57.8769 18.3959 57.1313 18.084 56.4802 17.7133C56.3238 17.6241 56.1253 17.6871 56.0497 17.8509L54.7959 20.5633C54.7297 20.7061 54.7833 20.8751 54.9167 20.9571C55.6045 21.3771 56.4939 21.7352 57.5849 22.0302C58.823 22.3411 60.1104 22.4965 61.4451 22.4965V22.4944C63.0118 22.4944 64.3381 22.2812 65.4218 21.8538C66.5243 21.4264 67.3665 20.8436 67.9472 20.1054C68.5279 19.3483 68.8177 18.483 68.8177 17.5117C68.8177 16.6181 68.6434 15.8988 68.2948 15.3548C67.9462 14.7909 67.4915 14.3541 66.9307 14.0433L66.9318 14.0391Z"/>
<path fill="white" d="M84.4971 10.136C83.7809 8.91156 82.8043 7.97908 81.5652 7.33748C80.3461 6.67697 79.0303 6.34619 77.4436 6.34619C75.857 6.34619 74.4341 6.69587 73.1771 7.39523C71.9191 8.07464 70.9226 9.02707 70.1875 10.2515C69.4714 11.4559 69.1133 12.8651 69.1133 14.4193C69.1133 15.9734 69.4808 17.3637 70.2159 18.5871C70.9509 19.7915 71.9863 20.744 73.321 21.4433C74.6756 22.1427 76.2423 22.4924 78.0233 22.4924V22.4945C79.4367 22.4945 80.6853 22.2802 81.7679 21.8539C82.756 21.4465 83.5909 20.8847 84.2734 20.1706C84.3847 20.0541 84.3847 19.8692 84.2755 19.7495L82.2646 17.5601C82.1512 17.4372 81.9622 17.4288 81.8351 17.5391C81.372 17.9434 80.8659 18.2542 80.3156 18.4716C79.6961 18.7236 78.9705 18.8507 78.1388 18.8507C77.2105 18.8507 76.3978 18.6858 75.7005 18.355C75.0232 18.0053 74.4908 17.5097 74.1044 16.8691C73.9038 16.51 73.761 16.1204 73.6696 15.7025H85.2048C85.3624 15.7025 85.4947 15.5817 85.5094 15.4242C85.5199 15.3161 85.5304 15.2037 85.5398 15.0903C85.5598 14.8572 85.5692 14.6534 85.5692 14.4781C85.5692 12.7874 85.2111 11.3404 84.495 10.1349L84.4971 10.136ZM75.4117 10.3113C76.0113 9.96165 76.6991 9.78628 77.473 9.78628C78.247 9.78628 78.9243 9.96165 79.505 10.3113C80.0857 10.6411 80.5403 11.1083 80.869 11.71C81.0874 12.1091 81.2313 12.5564 81.3048 13.05H73.6171C73.6927 12.5648 73.8355 12.1269 74.0476 11.7384C74.3774 11.1167 74.831 10.6411 75.4117 10.3103V10.3113Z"/>
</g>
<defs>
<clipPath id="clip0_6364_1147">
<rect width="85.5707" height="24.2014" fill="white" transform="translate(0 0.399414)"/>
</clipPath>
</defs>
</svg>
