<svg width="14" height="14" viewBox="0 0 14 14" fill="none"
  xmlns="http://www.w3.org/2000/svg">
  <path d="M9.04671 6.5L8.44671 7.11333C7.96671 7.59333 7.66671 8 7.66671 9H6.33337V8.66667C6.33337 7.92667 6.63337 7.26 7.11337 6.78L7.94004 5.94C8.18671 5.7 8.33337 5.36667 8.33337 5C8.33337 4.26 7.73337 3.66667 7.00004 3.66667C6.64642 3.66667 6.30728 3.80714 6.05723 4.05719C5.80718 4.30724 5.66671 4.64638 5.66671 5H4.33337C4.33337 4.29275 4.61433 3.61448 5.11442 3.11438C5.61452 2.61428 6.2928 2.33333 7.00004 2.33333C7.70728 2.33333 8.38556 2.61428 8.88566 3.11438C9.38576 3.61448 9.66671 4.29275 9.66671 5C9.66671 5.58667 9.42671 6.11333 9.04671 6.5ZM7.66671 11.6667H6.33337V10.3333H7.66671V11.6667ZM7.00004 0.333332C6.12456 0.333332 5.25766 0.505771 4.44882 0.840802C3.63998 1.17583 2.90505 1.6669 2.286 2.28595C1.03575 3.5362 0.333374 5.23189 0.333374 7C0.333374 8.76811 1.03575 10.4638 2.286 11.714C2.90505 12.3331 3.63998 12.8242 4.44882 13.1592C5.25766 13.4942 6.12456 13.6667 7.00004 13.6667C8.76815 13.6667 10.4638 12.9643 11.7141 11.714C12.9643 10.4638 13.6667 8.76811 13.6667 7C13.6667 3.31333 10.6667 0.333332 7.00004 0.333332Z" fill="#869AAC"/>
</svg>
